<svg viewBox="0 0 841.89 358.28" xmlns="http://www.w3.org/2000/svg"><path d="m594.47 3.09a101.57 101.57 0 0 0 -9.21 11.64 89.1 89.1 0 0 0 -7.26 12.87 81.86 81.86 0 0 0 -7.35 29.85 90.89 90.89 0 0 0 .05 10.3 97.31 97.31 0 0 0 1.3 10.88 113.06 113.06 0 0 0 2.71 11.48 126.94 126.94 0 0 0 4.29 12.09l28.73-4.79q-2.58-5.46-4.46-10.73a101.42 101.42 0 0 1 -3.07-10.22 88.75 88.75 0 0 1 -1.81-9.75 79.41 79.41 0 0 1 -.62-9.26 72.52 72.52 0 0 1 4.91-27.1 76 76 0 0 1 5.86-11.82 86.19 86.19 0 0 1 7.77-10.72z" fill="#209ed5"/><path d="m384.66 72.86-25.21 12.36a184 184 0 0 0 31.08 18.4 275.6 275.6 0 0 0 40.58 15.27 376.51 376.51 0 0 0 49.12 10.81 466.34 466.34 0 0 0 55.82 5.1l3.86-20.23a415.56 415.56 0 0 1 -48.47-4.25 344.13 344.13 0 0 1 -42.89-9 259.83 259.83 0 0 1 -35.86-12.84 175.33 175.33 0 0 1 -28.03-15.62z" fill="#12519b"/><path d="m820.54 345.58a523.23 523.23 0 0 0 -40.65-63.48 454.5 454.5 0 0 0 -43.73-50.34 415.27 415.27 0 0 0 -46.37-39.7 399.43 399.43 0 0 0 -49.06-30.82l-20.16 18.88a353.24 353.24 0 0 1 44.61 29.77 364.91 364.91 0 0 1 41.28 37.94 396.79 396.79 0 0 1 37.91 47.55 456.75 456.75 0 0 1 33.94 59.19" fill="#209ed5" fill-rule="evenodd"/><g fill="#12519b"><path d="m797.37 85.6c-13.81 0-27.45.57-40.83 1.75s-26.73 3-39.77 5.4a374.46 374.46 0 0 0 -38.95 9.41 346.79 346.79 0 0 0 -38.39 14l19.06 16.94a305.27 305.27 0 0 1 35.43-13.57 330.14 330.14 0 0 1 36.18-9.13 368.42 368.42 0 0 1 37.12-5.26c12.51-1.15 25.28-1.7 38.24-1.7h7.29s4.9.1 7.37.18 4.94.18 7.41.29 5 .26 7.47.41l-6.14-17.79c-2.67-.16-5.31-.31-8-.43s-5.26-.22-7.89-.3-5.24-.14-7.85-.19-5.12-.01-7.75-.01z"/><g fill-rule="evenodd"><path d="m96 256.36h-6.6c-17.29 0-47.18 1.31-47.18 19.4 0 11.53 11.79 16.51 22 16.51 21.51 0 31.78-11.27 31.78-28.82zm1.82 39.05h-.82c-8.91 14.16-23.59 20.45-40.36 20.45-23.32 0-45.86-12.84-45.86-37.75 0-40.87 47.7-43.77 79.15-43.77h7.85v-3.4c0-15.46-12-23.59-28.82-23.59a49.43 49.43 0 0 0 -33.54 13.12l-16.53-16.53c13.91-14.14 33.56-20.17 53.48-20.17 53.72 0 53.72 38.79 53.72 56.6v72.34h-28.31z"/><path d="m225.68 221.78c-6-8.39-13.89-12.86-24.63-12.86-8.4 0-18.35 3.93-18.35 13.37 0 22.54 67.87 4.2 67.87 53.21 0 29.87-28.56 40.36-54.24 40.36-19.4 0-36.17-5-49-19.39l21-19.66c8.12 8.91 16.51 15.46 29.87 15.46 9.18 0 21-4.46 21-14.41 0-26-67.88-5.51-67.88-53.48 0-28 25.16-40.61 50.58-40.61 16.78 0 34.6 5.24 44.82 19.12z"/><path d="m260.27 213.64v-26.73h26v-36.44h31.45v36.44h34.59v26.73h-34.64v55c0 12.59 3.67 20.46 17.56 20.46 5.51 0 13.11-1.06 17-3.94v26.47c-6.54 3.15-17.56 4.2-24.9 4.2-33.29 0-41.14-14.93-41.14-44.55v-57.64z"/><path d="m451.07 256.36h-6.56c-17.3 0-47.17 1.31-47.17 19.4 0 11.53 11.79 16.51 22 16.51 21.51 0 31.73-11.27 31.73-28.82zm1.83 39.05h-.8c-8.89 14.16-23.58 20.45-40.35 20.45-23.33 0-45.86-12.84-45.86-37.75 0-40.87 47.69-43.77 79.15-43.77h7.86v-3.4c0-15.46-12-23.59-28.83-23.59a49.41 49.41 0 0 0 -33.54 13.12l-16.53-16.53c13.88-14.14 33.54-20.17 53.46-20.17 53.73 0 53.73 38.79 53.73 56.6v72.34h-28.29z"/><path d="m539.91 204.48h.52c5-10.5 17.56-20.71 37-20.71 33.81 0 45.87 23.84 45.87 49.54v79.4h-31.5v-63.71c0-13.91-1-37-23.07-37-20.7 0-28.82 15.21-28.82 32v68.66h-31.45v-198.09h31.45z"/></g></g></svg>